# xmcd
#
# Track frame offsets:
# 150
# 17969
# 31191
# 43425
# 56781
# 74546
# 92980
# 108898
# 125953
# 140592
# 156411
# 174362
# 187097
#
# Disc length: 2744 seconds
#
#
# Revision: 0
# Processed by: cddbd v1.5.1PL0 Copyright (c) Steve Scherf et al.
# Submitted via: FreeRIP 2.80 
#
DISCID=c90ab60d
DTITLE=Spank The Monkey - Spank
DYEAR=2000
DGENRE=
TTITLE0=Shake Your Tree
TTITLE1=Mother
TTITLE2=Listen To Me
TTITLE3=Looking Back
TTITLE4=Heart Of Stone
TTITLE5=Southbound Train
TTITLE6=I Don't Know
TTITLE7=I Have To Worry
TTITLE8=Sleeping With The Devil
TTITLE9=Babysitter
TTITLE10=Slightly Blue
TTITLE11=Willie Brown
TTITLE12=One Way Out
EXTD=
EXTT0=
EXTT1=
EXTT2=
EXTT3=
EXTT4=
EXTT5=
EXTT6=
EXTT7=
EXTT8=
EXTT9=
EXTT10=
EXTT11=
EXTT12=
PLAYORDER=
